<svg width="240" height="33" viewBox="0 0 240 33" fill="none" xmlns="http://www.w3.org/2000/svg">
<path d="M22.6094 13.5469C22.6094 15.3073 22.3906 16.9115 21.9531 18.3594C21.5156 19.7969 20.849 21.0365 19.9531 22.0781C19.0677 23.1198 17.9427 23.9219 16.5781 24.4844C15.2135 25.0365 13.599 25.3125 11.7344 25.3125C9.86979 25.3125 8.25521 25.0365 6.89062 24.4844C5.52604 23.9219 4.39583 23.1198 3.5 22.0781C2.61458 21.0365 1.95312 19.7917 1.51562 18.3438C1.07812 16.8958 0.859375 15.2865 0.859375 13.5156C0.859375 11.151 1.24479 9.09375 2.01562 7.34375C2.79688 5.58333 3.99479 4.21875 5.60938 3.25C7.22396 2.28125 9.27604 1.79688 11.7656 1.79688C14.2448 1.79688 16.2812 2.28125 17.875 3.25C19.4792 4.21875 20.6667 5.58333 21.4375 7.34375C22.2188 9.10417 22.6094 11.1719 22.6094 13.5469ZM5.9375 13.5469C5.9375 15.1406 6.13542 16.5156 6.53125 17.6719C6.9375 18.8177 7.56771 19.7031 8.42188 20.3281C9.27604 20.9427 10.3802 21.25 11.7344 21.25C13.1094 21.25 14.224 20.9427 15.0781 20.3281C15.9323 19.7031 16.5521 18.8177 16.9375 17.6719C17.3333 16.5156 17.5312 15.1406 17.5312 13.5469C17.5312 11.151 17.0833 9.26562 16.1875 7.89062C15.2917 6.51562 13.8177 5.82812 11.7656 5.82812C10.401 5.82812 9.28646 6.14062 8.42188 6.76562C7.56771 7.38021 6.9375 8.26562 6.53125 9.42188C6.13542 10.5677 5.9375 11.9427 5.9375 13.5469ZM35.4075 7.20312C37.3762 7.20312 38.9648 7.96875 40.1731 9.5C41.3919 11.0312 42.0012 13.276 42.0012 16.2344C42.0012 18.2135 41.7148 19.8802 41.1419 21.2344C40.569 22.5781 39.7773 23.5938 38.7669 24.2812C37.7565 24.9688 36.595 25.3125 35.2825 25.3125C34.4387 25.3125 33.7148 25.2083 33.1106 25C32.5065 24.7812 31.9908 24.5052 31.5637 24.1719C31.1367 23.8281 30.7669 23.4635 30.4544 23.0781H30.2044C30.2877 23.4948 30.3502 23.9219 30.3919 24.3594C30.4335 24.7969 30.4544 25.224 30.4544 25.6406V32.6875H25.6887V7.53125H29.5637L30.2356 9.79688H30.4544C30.7669 9.32812 31.1471 8.89583 31.595 8.5C32.0429 8.10417 32.5794 7.79167 33.2044 7.5625C33.8398 7.32292 34.5742 7.20312 35.4075 7.20312ZM33.8762 11.0156C33.0429 11.0156 32.3815 11.1875 31.8919 11.5312C31.4023 11.875 31.0429 12.3906 30.8137 13.0781C30.595 13.7656 30.4752 14.6354 30.4544 15.6875V16.2031C30.4544 17.3281 30.5585 18.2812 30.7669 19.0625C30.9856 19.8438 31.345 20.4375 31.845 20.8438C32.3554 21.25 33.0533 21.4531 33.9387 21.4531C34.6679 21.4531 35.2669 21.25 35.7356 20.8438C36.2044 20.4375 36.5533 19.8438 36.7825 19.0625C37.0221 18.2708 37.1419 17.3073 37.1419 16.1719C37.1419 14.4635 36.8762 13.1771 36.345 12.3125C35.8137 11.4479 34.9908 11.0156 33.8762 11.0156ZM51.8619 7.20312C53.4765 7.20312 54.8671 7.51562 56.0337 8.14062C57.2004 8.75521 58.1015 9.65104 58.7369 10.8281C59.3723 12.0052 59.69 13.4427 59.69 15.1406V17.4531H48.4244C48.4765 18.7969 48.8775 19.8542 49.6275 20.625C50.3879 21.3854 51.44 21.7656 52.7837 21.7656C53.8983 21.7656 54.9192 21.651 55.8462 21.4219C56.7733 21.1927 57.7265 20.849 58.7056 20.3906V24.0781C57.841 24.5052 56.9348 24.8177 55.9869 25.0156C55.0494 25.2135 53.9087 25.3125 52.565 25.3125C50.815 25.3125 49.2629 24.9896 47.9087 24.3438C46.565 23.6979 45.5077 22.7135 44.7369 21.3906C43.9765 20.0677 43.5962 18.401 43.5962 16.3906C43.5962 14.349 43.94 12.651 44.6275 11.2969C45.3254 9.93229 46.2942 8.91146 47.5337 8.23438C48.7733 7.54688 50.216 7.20312 51.8619 7.20312ZM51.8931 10.5938C50.966 10.5938 50.1952 10.8906 49.5806 11.4844C48.9765 12.0781 48.6275 13.0104 48.5337 14.2812H55.2212C55.2108 13.5729 55.0806 12.9427 54.8306 12.3906C54.591 11.8385 54.2265 11.401 53.7369 11.0781C53.2577 10.7552 52.6431 10.5938 51.8931 10.5938ZM72.2069 7.20312C74.0715 7.20312 75.5715 7.71354 76.7069 8.73438C77.8423 9.74479 78.41 11.3698 78.41 13.6094V25H73.6444V14.7969C73.6444 13.5469 73.4152 12.6042 72.9569 11.9688C72.509 11.3333 71.8006 11.0156 70.8319 11.0156C69.3735 11.0156 68.3787 11.5104 67.8475 12.5C67.3162 13.4896 67.0506 14.9167 67.0506 16.7812V25H62.285V7.53125H65.9256L66.5662 9.76562H66.8319C67.2069 9.16146 67.6704 8.67188 68.2225 8.29688C68.785 7.92188 69.4048 7.64583 70.0819 7.46875C70.7694 7.29167 71.4777 7.20312 72.2069 7.20312ZM102.6 25H89.4437V2.15625H102.6V6.125H94.2875V11.1406H102.022V15.1094H94.2875V21H102.6V25ZM115.648 7.20312C117.513 7.20312 119.013 7.71354 120.148 8.73438C121.284 9.74479 121.851 11.3698 121.851 13.6094V25H117.086V14.7969C117.086 13.5469 116.856 12.6042 116.398 11.9688C115.95 11.3333 115.242 11.0156 114.273 11.0156C112.815 11.0156 111.82 11.5104 111.289 12.5C110.757 13.4896 110.492 14.9167 110.492 16.7812V25H105.726V7.53125H109.367L110.007 9.76562H110.273C110.648 9.16146 111.112 8.67188 111.664 8.29688C112.226 7.92188 112.846 7.64583 113.523 7.46875C114.211 7.29167 114.919 7.20312 115.648 7.20312ZM132.837 21.5156C133.358 21.5156 133.863 21.4635 134.353 21.3594C134.853 21.2552 135.347 21.125 135.837 20.9688V24.5156C135.326 24.7448 134.691 24.9323 133.931 25.0781C133.181 25.2344 132.358 25.3125 131.462 25.3125C130.42 25.3125 129.483 25.1458 128.649 24.8125C127.826 24.4688 127.175 23.8802 126.696 23.0469C126.228 22.2031 125.993 21.0312 125.993 19.5312V11.1094H123.712V9.09375L126.337 7.5L127.712 3.8125H130.759V7.53125H135.649V11.1094H130.759V19.5312C130.759 20.1979 130.946 20.6979 131.321 21.0312C131.707 21.3542 132.212 21.5156 132.837 21.5156ZM145.307 7.20312C146.921 7.20312 148.312 7.51562 149.479 8.14062C150.645 8.75521 151.546 9.65104 152.182 10.8281C152.817 12.0052 153.135 13.4427 153.135 15.1406V17.4531H141.869C141.921 18.7969 142.322 19.8542 143.072 20.625C143.833 21.3854 144.885 21.7656 146.229 21.7656C147.343 21.7656 148.364 21.651 149.291 21.4219C150.218 21.1927 151.171 20.849 152.151 20.3906V24.0781C151.286 24.5052 150.38 24.8177 149.432 25.0156C148.494 25.2135 147.354 25.3125 146.01 25.3125C144.26 25.3125 142.708 24.9896 141.354 24.3438C140.01 23.6979 138.953 22.7135 138.182 21.3906C137.421 20.0677 137.041 18.401 137.041 16.3906C137.041 14.349 137.385 12.651 138.072 11.2969C138.77 9.93229 139.739 8.91146 140.979 8.23438C142.218 7.54688 143.661 7.20312 145.307 7.20312ZM145.338 10.5938C144.411 10.5938 143.64 10.8906 143.026 11.4844C142.421 12.0781 142.072 13.0104 141.979 14.2812H148.666C148.656 13.5729 148.526 12.9427 148.276 12.3906C148.036 11.8385 147.671 11.401 147.182 11.0781C146.703 10.7552 146.088 10.5938 145.338 10.5938ZM165.48 7.20312C165.72 7.20312 165.996 7.21875 166.308 7.25C166.631 7.27083 166.891 7.30208 167.089 7.34375L166.73 11.8125C166.574 11.7604 166.35 11.724 166.058 11.7031C165.777 11.6719 165.532 11.6562 165.324 11.6562C164.709 11.6562 164.11 11.7344 163.527 11.8906C162.954 12.0469 162.438 12.3021 161.98 12.6562C161.522 13 161.157 13.4583 160.886 14.0312C160.626 14.5938 160.496 15.2865 160.496 16.1094V25H155.73V7.53125H159.339L160.042 10.4688H160.277C160.621 9.875 161.048 9.33333 161.558 8.84375C162.079 8.34375 162.667 7.94792 163.324 7.65625C163.99 7.35417 164.709 7.20312 165.48 7.20312ZM178.7 7.20312C180.669 7.20312 182.257 7.96875 183.466 9.5C184.684 11.0312 185.294 13.276 185.294 16.2344C185.294 18.2135 185.007 19.8802 184.434 21.2344C183.861 22.5781 183.07 23.5938 182.059 24.2812C181.049 24.9688 179.887 25.3125 178.575 25.3125C177.731 25.3125 177.007 25.2083 176.403 25C175.799 24.7812 175.283 24.5052 174.856 24.1719C174.429 23.8281 174.059 23.4635 173.747 23.0781H173.497C173.58 23.4948 173.643 23.9219 173.684 24.3594C173.726 24.7969 173.747 25.224 173.747 25.6406V32.6875H168.981V7.53125H172.856L173.528 9.79688H173.747C174.059 9.32812 174.44 8.89583 174.887 8.5C175.335 8.10417 175.872 7.79167 176.497 7.5625C177.132 7.32292 177.867 7.20312 178.7 7.20312ZM177.169 11.0156C176.335 11.0156 175.674 11.1875 175.184 11.5312C174.695 11.875 174.335 12.3906 174.106 13.0781C173.887 13.7656 173.768 14.6354 173.747 15.6875V16.2031C173.747 17.3281 173.851 18.2812 174.059 19.0625C174.278 19.8438 174.637 20.4375 175.137 20.8438C175.648 21.25 176.346 21.4531 177.231 21.4531C177.96 21.4531 178.559 21.25 179.028 20.8438C179.497 20.4375 179.846 19.8438 180.075 19.0625C180.315 18.2708 180.434 17.3073 180.434 16.1719C180.434 14.4635 180.169 13.1771 179.637 12.3125C179.106 11.4479 178.283 11.0156 177.169 11.0156ZM197.701 7.20312C197.941 7.20312 198.217 7.21875 198.529 7.25C198.852 7.27083 199.113 7.30208 199.311 7.34375L198.951 11.8125C198.795 11.7604 198.571 11.724 198.279 11.7031C197.998 11.6719 197.753 11.6562 197.545 11.6562C196.93 11.6562 196.331 11.7344 195.748 11.8906C195.175 12.0469 194.66 12.3021 194.201 12.6562C193.743 13 193.378 13.4583 193.107 14.0312C192.847 14.5938 192.717 15.2865 192.717 16.1094V25H187.951V7.53125H191.561L192.264 10.4688H192.498C192.842 9.875 193.269 9.33333 193.779 8.84375C194.3 8.34375 194.889 7.94792 195.545 7.65625C196.212 7.35417 196.93 7.20312 197.701 7.20312ZM205.968 7.53125V25H201.202V7.53125H205.968ZM203.593 0.6875C204.301 0.6875 204.911 0.854167 205.421 1.1875C205.932 1.51042 206.187 2.11979 206.187 3.01562C206.187 3.90104 205.932 4.51562 205.421 4.85938C204.911 5.19271 204.301 5.35938 203.593 5.35938C202.874 5.35938 202.26 5.19271 201.749 4.85938C201.249 4.51562 200.999 3.90104 200.999 3.01562C200.999 2.11979 201.249 1.51042 201.749 1.1875C202.26 0.854167 202.874 0.6875 203.593 0.6875ZM221.891 19.8125C221.891 21 221.61 22.0052 221.048 22.8281C220.495 23.6406 219.667 24.2604 218.563 24.6875C217.459 25.1042 216.084 25.3125 214.438 25.3125C213.219 25.3125 212.173 25.2344 211.298 25.0781C210.433 24.9219 209.558 24.6615 208.673 24.2969V20.3594C209.62 20.7865 210.636 21.1406 211.719 21.4219C212.813 21.6927 213.771 21.8281 214.594 21.8281C215.521 21.8281 216.183 21.6927 216.579 21.4219C216.985 21.1406 217.188 20.776 217.188 20.3281C217.188 20.0365 217.105 19.776 216.938 19.5469C216.782 19.3073 216.438 19.0417 215.907 18.75C215.376 18.4479 214.542 18.0573 213.407 17.5781C212.313 17.1198 211.412 16.6562 210.704 16.1875C210.006 15.7188 209.485 15.1667 209.141 14.5312C208.808 13.8854 208.641 13.0677 208.641 12.0781C208.641 10.4635 209.266 9.25 210.516 8.4375C211.777 7.61458 213.459 7.20312 215.563 7.20312C216.646 7.20312 217.678 7.3125 218.657 7.53125C219.646 7.75 220.662 8.09896 221.704 8.57812L220.266 12.0156C219.402 11.6406 218.584 11.3333 217.813 11.0938C217.053 10.8542 216.277 10.7344 215.485 10.7344C214.787 10.7344 214.261 10.8281 213.907 11.0156C213.553 11.2031 213.376 11.4896 213.376 11.875C213.376 12.1562 213.464 12.4062 213.641 12.625C213.829 12.8438 214.183 13.0885 214.704 13.3594C215.235 13.6198 216.011 13.9583 217.032 14.375C218.021 14.7812 218.881 15.2083 219.61 15.6562C220.339 16.0938 220.902 16.6406 221.298 17.2969C221.693 17.9427 221.891 18.7812 221.891 19.8125ZM231.533 7.20312C233.148 7.20312 234.538 7.51562 235.705 8.14062C236.872 8.75521 237.773 9.65104 238.408 10.8281C239.044 12.0052 239.361 13.4427 239.361 15.1406V17.4531H228.096C228.148 18.7969 228.549 19.8542 229.299 20.625C230.059 21.3854 231.111 21.7656 232.455 21.7656C233.57 21.7656 234.59 21.651 235.518 21.4219C236.445 21.1927 237.398 20.849 238.377 20.3906V24.0781C237.512 24.5052 236.606 24.8177 235.658 25.0156C234.721 25.2135 233.58 25.3125 232.236 25.3125C230.486 25.3125 228.934 24.9896 227.58 24.3438C226.236 23.6979 225.179 22.7135 224.408 21.3906C223.648 20.0677 223.268 18.401 223.268 16.3906C223.268 14.349 223.611 12.651 224.299 11.2969C224.997 9.93229 225.965 8.91146 227.205 8.23438C228.445 7.54688 229.887 7.20312 231.533 7.20312ZM231.564 10.5938C230.637 10.5938 229.866 10.8906 229.252 11.4844C228.648 12.0781 228.299 13.0104 228.205 14.2812H234.893C234.882 13.5729 234.752 12.9427 234.502 12.3906C234.262 11.8385 233.898 11.401 233.408 11.0781C232.929 10.7552 232.314 10.5938 231.564 10.5938Z" fill="#303031"/>
</svg>
